<svg width="84" height="27" viewBox="0 0 84 27" fill="none" xmlns="http://www.w3.org/2000/svg">
<g clip-path="url(#clip0_2_6)">
<path d="M8.85201 19.42C7.74401 19.42 6.67701 19.292 5.65001 19.035C4.67798 18.8011 3.74822 18.4175 2.89401 17.898C2.08301 17.396 1.44101 16.768 0.96901 16.016C0.49601 15.264 0.26001 14.386 0.26001 13.383V13.067H5.65001V13.313C5.65001 13.989 5.95001 14.485 6.55101 14.8C7.15201 15.115 7.96601 15.272 8.99201 15.272C9.51321 15.2739 10.033 15.2182 10.542 15.106C11.037 14.996 11.445 14.815 11.766 14.564C12.087 14.313 12.248 13.995 12.248 13.61C12.248 12.992 11.906 12.554 11.224 12.297C10.541 12.041 9.44701 11.784 7.94201 11.527C7.06734 11.3817 6.20239 11.183 5.35201 10.932C4.50928 10.6894 3.69879 10.3462 2.93801 9.91001C2.23115 9.50989 1.62612 8.9521 1.17001 8.28001C0.72701 7.62201 0.50501 6.82001 0.50501 5.87501C0.50501 4.61501 0.88701 3.55301 1.65101 2.69001C2.41501 1.82701 3.43301 1.17301 4.70501 0.730006C5.97701 0.287006 7.37701 0.065006 8.90501 0.065006C10.363 0.065006 11.723 0.307006 12.983 0.791006C14.243 1.27501 15.263 1.97001 16.045 2.87401C16.827 3.77801 17.217 4.86601 17.217 6.13801V6.38301H11.88V6.17301C11.88 5.70601 11.731 5.32701 11.434 5.03501C11.1145 4.73054 10.7277 4.50578 10.305 4.37901C9.84665 4.23254 9.3682 4.15865 8.88701 4.16001C8.44401 4.16001 7.98701 4.21001 7.51401 4.30901C7.04101 4.40801 6.64201 4.57101 6.31501 4.79901C5.98801 5.02601 5.82501 5.34401 5.82501 5.75301C5.82501 6.14901 6.00001 6.47301 6.35001 6.72301C6.70001 6.97501 7.19001 7.17901 7.82001 7.33601C8.45001 7.49401 9.18001 7.64201 10.008 7.78301C10.789 7.91101 11.615 8.08901 12.484 8.31601C13.353 8.54401 14.17 8.86501 14.934 9.27901C15.6709 9.66909 16.3062 10.2263 16.789 10.906C17.261 11.577 17.498 12.426 17.498 13.452C17.498 14.514 17.253 15.424 16.763 16.182C16.2618 16.951 15.5795 17.5853 14.776 18.029C13.9059 18.5152 12.9683 18.869 11.994 19.079C10.973 19.306 9.92601 19.42 8.85201 19.42ZM33.48 19V8.92001C33.48 8.15001 33.38 7.44701 33.182 6.81101C33.0004 6.19913 32.6262 5.66219 32.115 5.28001C31.602 4.89501 30.861 4.70301 29.892 4.70301C29.052 4.70301 28.326 4.89501 27.714 5.28001C27.0977 5.66849 26.6078 6.2279 26.304 6.89001C25.978 7.57801 25.814 8.37201 25.814 9.27001L24.31 8.18501C24.31 6.57501 24.66 5.16301 25.36 3.95001C26.0352 2.76131 27.0175 1.77594 28.204 1.09701C29.398 0.410006 30.726 0.066006 32.183 0.066006C33.713 0.066006 34.969 0.372006 35.955 0.985006C36.941 1.59701 37.676 2.44901 38.16 3.54001C38.644 4.63001 38.886 5.90501 38.886 7.36401V19H33.48ZM20.39 19V0.415006H25.815V19H20.39ZM48.779 19.385C47.425 19.385 46.221 19.169 45.165 18.737C44.109 18.306 43.284 17.682 42.689 16.865C42.094 16.048 41.796 15.057 41.796 13.89C41.796 12.572 42.158 11.498 42.881 10.67C43.605 9.84201 44.564 9.20901 45.76 8.77101C47.0165 8.31999 48.3248 8.02903 49.654 7.90501C51.695 7.70701 53.104 7.52501 53.88 7.36301C54.656 7.19901 55.044 6.91301 55.044 6.50501V6.47001C55.044 5.78201 54.714 5.24001 54.055 4.84301C53.395 4.44601 52.477 4.24801 51.299 4.24801C50.05 4.24801 49.097 4.47201 48.438 4.92101C47.778 5.37101 47.448 6.05601 47.448 6.97701H42.11C42.11 5.48401 42.516 4.22401 43.327 3.19701C44.137 2.17101 45.237 1.39201 46.625 0.861006C48.014 0.331006 49.583 0.065006 51.333 0.065006C52.966 0.065006 54.477 0.313006 55.865 0.809006C57.254 1.30501 58.371 2.04901 59.217 3.04001C60.062 4.03201 60.485 5.29201 60.485 6.82001V14.852C60.485 15.331 60.5 15.789 60.529 16.226C60.559 16.664 60.625 17.063 60.73 17.425C60.847 17.833 60.993 18.172 61.168 18.44C61.343 18.708 61.488 18.895 61.605 19H56.268C56.1285 18.8416 56.0027 18.6717 55.892 18.492C55.7119 18.2138 55.5675 17.9142 55.462 17.6C55.3241 17.1985 55.2221 16.7855 55.157 16.366C55.0878 15.8822 55.0554 15.3938 55.06 14.905L56.18 15.675C55.854 16.445 55.326 17.107 54.597 17.661C53.867 18.215 53.004 18.641 52.007 18.939C51.009 19.236 49.933 19.385 48.777 19.385H48.779ZM50.231 15.325C51.0503 15.3313 51.8626 15.1735 52.62 14.861C53.3516 14.5588 53.9802 14.0514 54.43 13.4C54.897 12.735 55.13 11.866 55.13 10.792V8.92001L56.478 10.233C55.708 10.513 54.818 10.743 53.809 10.923C52.799 11.105 51.794 11.247 50.79 11.353C49.6 11.469 48.71 11.67 48.122 11.956C47.532 12.242 47.238 12.723 47.238 13.4C47.238 14.042 47.488 14.523 47.99 14.844C48.492 15.164 49.239 15.325 50.23 15.325H50.231ZM63.973 26.648V0.415006H69.415V26.648H63.973ZM75.155 19.42C73.7211 19.4305 72.3157 19.0198 71.113 18.239C69.888 17.451 68.908 16.389 68.173 15.054C67.438 13.718 67.07 12.216 67.07 10.547V10.267L69.415 10.215V10.425C69.415 11.288 69.625 12.044 70.045 12.691C70.465 13.339 71.008 13.837 71.673 14.187C72.338 14.537 73.032 14.713 73.755 14.713C74.945 14.713 75.981 14.301 76.861 13.479C77.742 12.656 78.183 11.37 78.183 9.62001C78.183 7.87001 77.745 6.59501 76.87 5.79601C75.995 4.99701 74.957 4.59701 73.755 4.59701C73.032 4.59701 72.338 4.77001 71.673 5.11401C71.0137 5.45283 70.4529 5.95605 70.045 6.57501C69.625 7.20501 69.415 7.95801 69.415 8.83201L67.07 8.69201C67.07 7.01201 67.438 5.52801 68.173 4.23901C68.908 2.94901 69.888 1.93201 71.113 1.18501C72.329 0.440864 73.7294 0.0528257 75.155 0.065006C76.66 0.065006 78.066 0.435006 79.373 1.17601C80.679 1.91701 81.738 2.99901 82.549 4.42301C83.359 5.84601 83.765 7.57801 83.765 9.62001C83.765 11.755 83.369 13.552 82.575 15.01C81.782 16.468 80.732 17.568 79.425 18.309C78.1241 19.0483 76.6513 19.4315 75.155 19.42Z" fill="#151515"/>
</g>
<defs>
<clipPath id="clip0_2_6">
<rect width="84" height="27" fill="white"/>
</clipPath>
</defs>
</svg>
